<?xml version="1.0" standalone="no"?><!-- Generator: Gravit.io --><svg xmlns="http://www.w3.org/2000/svg" xmlns:xlink="http://www.w3.org/1999/xlink" style="isolation:isolate" viewBox="0 0 600 600" width="600px" height="600px"><defs><clipPath id="_clipPath_EfTOX03061Fie9YWjWCjOJDb08Jzqt8S"><rect width="600" height="600"/></clipPath></defs><g clip-path="url(#_clipPath_EfTOX03061Fie9YWjWCjOJDb08Jzqt8S)"><path d="M 147.16 7 L 450.84 7 C 528.196 7 591 69.804 591 147.16 L 591 450.84 C 591 528.196 528.196 591 450.84 591 L 147.16 591 C 69.804 591 7 528.196 7 450.84 L 7 147.16 C 7 69.804 69.804 7 147.16 7 Z" style="stroke:none;fill:#747474;stroke-miterlimit:10;"/><path d="M 150 12 L 449 12 C 525.164 12 587 73.836 587 150 L 587 449 C 587 525.164 525.164 587 449 587 L 150 587 C 73.836 587 12 525.164 12 449 L 12 150 C 12 73.836 73.836 12 150 12 Z" style="fill:none;stroke:#FFFFFF;stroke-width:22;stroke-linecap:square;stroke-miterlimit:2;"/><path d=" M 74.2 367.92 L 74.2 128.16 L 220.72 128.16 L 220.72 173.52 L 126.4 173.52 L 126.4 228.24 L 204.52 228.24 L 204.52 273.24 L 126.4 273.24 L 126.4 367.92 L 74.2 367.92 L 74.2 367.92 Z  M 263.2 367.92 L 263.2 128.16 L 315.4 128.16 L 315.4 367.92 L 263.2 367.92 L 263.2 367.92 Z  M 419.8 367.92 L 419.8 173.52 L 354.28 173.52 L 354.28 128.16 L 537.16 128.16 L 537.16 173.52 L 472.36 173.52 L 472.36 367.92 L 419.8 367.92 L 419.8 367.92 Z " fill="rgb(255,255,255)"/><path d=" M 74.02 492.579 L 74.02 403.819 L 154.392 403.819 L 154.392 415.006 L 98.21 415.006 L 98.21 441.109 L 140.865 441.109 L 140.865 452.352 L 98.21 452.352 L 98.21 492.579 L 74.02 492.579 Z  M 179.767 492.579 L 179.767 403.819 L 203.958 403.819 L 203.958 492.579 L 179.767 492.579 Z  M 244.637 492.579 L 244.637 403.819 L 268.828 403.819 L 268.828 481.166 L 316.32 481.166 L 316.32 492.579 L 244.637 492.579 Z  M 342.782 492.579 L 342.782 403.819 L 424.339 403.819 L 424.339 415.006 L 366.972 415.006 L 366.972 439.527 L 410.713 439.527 L 410.713 450.657 L 366.972 450.657 L 366.972 481.166 L 428.288 481.166 L 428.288 492.579 L 342.782 492.579 Z  M 449.023 489.359 L 449.122 475.969 L 449.122 475.969 Q 457.712 479.359 465.66 480.715 L 465.66 480.715 L 465.66 480.715 Q 473.608 482.07 481.211 482.07 L 481.211 482.07 L 481.211 482.07 Q 487.925 482.07 492.566 481.138 L 492.566 481.138 L 492.566 481.138 Q 497.207 480.206 500.021 478.709 L 500.021 478.709 L 500.021 478.709 Q 502.835 477.212 504.069 475.319 L 504.069 475.319 L 504.069 475.319 Q 505.303 473.426 505.303 471.505 L 505.303 471.505 L 505.303 471.505 Q 505.303 468.398 502.835 465.855 L 502.835 465.855 L 502.835 465.855 Q 500.366 463.313 496.367 460.996 L 496.367 460.996 L 496.367 460.996 Q 492.369 458.68 487.284 456.533 L 487.284 456.533 L 487.284 456.533 Q 482.199 454.386 476.867 452.07 L 476.867 452.07 L 476.867 452.07 Q 471.535 449.753 466.401 447.182 L 466.401 447.182 L 466.401 447.182 Q 461.266 444.612 457.268 441.476 L 457.268 441.476 L 457.268 441.476 Q 453.269 438.34 450.85 434.527 L 450.85 434.527 L 450.85 434.527 Q 448.431 430.713 448.431 425.967 L 448.431 425.967 L 448.431 425.967 Q 448.431 420.543 451.738 416.221 L 451.738 416.221 L 451.738 416.221 Q 455.046 411.899 460.871 408.904 L 460.871 408.904 L 460.871 408.904 Q 466.697 405.91 474.695 404.3 L 474.695 404.3 L 474.695 404.3 Q 482.692 402.689 492.072 402.689 L 492.072 402.689 L 492.072 402.689 Q 499.576 402.689 507.08 403.622 L 507.08 403.622 L 507.08 403.622 Q 514.584 404.554 520.114 406.136 L 520.114 406.136 L 520.015 419.244 L 520.015 419.244 Q 512.906 416.588 506.587 415.458 L 506.587 415.458 L 506.587 415.458 Q 500.268 414.328 494.047 414.328 L 494.047 414.328 L 494.047 414.328 Q 488.518 414.328 484.42 415.176 L 484.42 415.176 L 484.42 415.176 Q 480.323 416.023 477.607 417.492 L 477.607 417.492 L 477.607 417.492 Q 474.892 418.961 473.559 420.91 L 473.559 420.91 L 473.559 420.91 Q 472.226 422.86 472.226 425.12 L 472.226 425.12 L 472.226 425.12 Q 472.226 428.396 474.645 431.024 L 474.645 431.024 L 474.645 431.024 Q 477.064 433.651 481.063 435.967 L 481.063 435.967 L 481.063 435.967 Q 485.062 438.284 490.196 440.403 L 490.196 440.403 L 490.196 440.403 Q 495.331 442.521 500.613 444.781 L 500.613 444.781 L 500.613 444.781 Q 505.896 447.041 511.03 449.527 L 511.03 449.527 L 511.03 449.527 Q 516.164 452.013 520.163 455.036 L 520.163 455.036 L 520.163 455.036 Q 524.162 458.058 526.581 461.787 L 526.581 461.787 L 526.581 461.787 Q 529 465.516 529 470.206 L 529 470.206 L 529 470.206 Q 529 475.46 525.791 479.811 L 525.791 479.811 L 525.791 479.811 Q 522.582 484.161 516.608 487.268 L 516.608 487.268 L 516.608 487.268 Q 510.635 490.376 502.094 492.099 L 502.094 492.099 L 502.094 492.099 Q 493.553 493.822 482.989 493.822 L 482.989 493.822 L 482.989 493.822 Q 478.644 493.822 474.003 493.512 L 474.003 493.512 L 474.003 493.512 Q 469.363 493.201 464.87 492.636 L 464.87 492.636 L 464.87 492.636 Q 460.378 492.071 456.28 491.252 L 456.28 491.252 L 456.28 491.252 Q 452.183 490.432 449.023 489.359 L 449.023 489.359 Z " fill="rgb(255,255,255)"/></g></svg>